<svg viewBox="0 0 184 184" fill="none" xmlns="http://www.w3.org/2000/svg">
<path d="M143.75 149.5V139.782C143.756 137.753 143.091 135.779 141.859 134.167C140.626 132.556 138.896 131.396 136.936 130.87L106.375 122.532V115.144H92L83.375 138.144L92 161.144H131.646L143.75 149.5Z" fill="#A8B0B5"/>
<path d="M131.646 153.352V161H139.351C139.926 161.045 140.503 160.968 141.046 160.774C141.588 160.58 142.083 160.273 142.499 159.874C142.914 159.475 143.241 158.992 143.456 158.458C143.672 157.923 143.772 157.35 143.75 156.774V149.5H135.47C134.456 149.5 133.483 149.903 132.766 150.62C132.049 151.337 131.646 152.31 131.646 153.324V153.352Z" fill="#748A95"/>
<path d="M92 54.1363L82.9437 78.9763L92 119.686C106.691 119.686 119.37 105.915 125.407 90.3613C128.282 82.7138 128.944 69.1725 128.944 60.8925C128.974 51.9311 125.861 43.2427 120.146 36.34L92 54.1363Z" fill="#F0F4F7"/>
<path d="M92 23L84.5538 38.5825L92 54.1362C97.895 54.1386 103.67 52.4674 108.652 49.3171C113.635 46.1667 117.621 41.6666 120.146 36.34C116.729 32.1785 112.433 28.8244 107.567 26.5181C102.701 24.2118 97.3849 23.0104 92 23Z" fill="#A8B0B5"/>
<path d="M114.022 68.8275C114.017 70.1682 113.614 71.4772 112.865 72.5892C112.116 73.7012 111.054 74.5664 109.814 75.0755C108.574 75.5846 107.211 75.7149 105.896 75.4499C104.582 75.1848 103.376 74.5364 102.43 73.5863C101.484 72.6363 100.84 71.4273 100.581 70.1119C100.321 68.7965 100.457 67.4338 100.972 66.1957C101.486 64.9575 102.356 63.8996 103.471 63.1553C104.586 62.411 105.897 62.0138 107.237 62.0138C108.131 62.0138 109.016 62.1902 109.841 62.533C110.666 62.8758 111.415 63.3781 112.045 64.0112C112.676 64.6443 113.175 65.3957 113.514 66.2222C113.854 67.0487 114.026 67.9341 114.022 68.8275V68.8275Z" fill="#DA0A63"/>
<path d="M92 111.32H77.625V122.533L55.9475 135.528C48.2425 140.07 41.9462 146.625 40.25 155.48C40.1099 156.14 40.1176 156.823 40.2726 157.48C40.4276 158.136 40.7261 158.75 41.1466 159.278C41.5671 159.806 42.0992 160.234 42.7047 160.532C43.3102 160.829 43.9741 160.989 44.6487 161H92V111.32Z" fill="#DF892A"/>
<path d="M77.625 111.32V120.894C81.8846 123.75 86.8729 125.326 92 125.436V111.32H77.625Z" fill="#AC5B00"/>
<path d="M55.8038 76.5613C56.1816 81.2634 57.1475 85.8995 58.6788 90.3613C64.7163 105.915 77.4238 119.686 92.0863 119.686V53.2163L55.8038 76.5613Z" fill="#DF892A"/>
<path d="M92 23C87.0844 23.0562 82.2282 24.0817 77.7095 26.0175C73.1908 27.9534 69.0984 30.7617 65.6666 34.2816C62.2349 37.8015 59.5312 41.9637 57.7105 46.5301C55.8898 51.0964 54.9879 55.9771 55.0562 60.8925C55.0562 65.2338 55.2287 70.955 55.8037 76.5612C55.8037 76.5612 81.6787 75.1813 92 53.2163V23Z" fill="#47545A"/>
<path d="M92 94.1562H105.196C105.541 94.1524 105.883 94.2174 106.202 94.3476C106.521 94.4777 106.811 94.6702 107.055 94.9139C107.299 95.1577 107.491 95.4476 107.621 95.7668C107.751 96.0859 107.816 96.4279 107.812 96.7725V114.253C109.875 112.761 111.8 111.087 113.562 109.25V96.7725C113.547 94.5583 112.661 92.439 111.095 90.8733C109.53 89.3076 107.41 88.4213 105.196 88.4062H92L89.125 91.2812L92 94.1562Z" fill="#FEE225"/>
<path d="M110.285 123.625V135.125C108.674 135.79 107.343 136.994 106.52 138.531C105.697 140.068 105.432 141.843 105.771 143.553C106.111 145.263 107.032 146.802 108.38 147.909C109.727 149.015 111.417 149.62 113.16 149.62C114.903 149.62 116.593 149.015 117.94 147.909C119.287 146.802 120.209 145.263 120.549 143.553C120.888 141.843 120.623 140.068 119.8 138.531C118.977 136.994 117.646 135.79 116.035 135.125V125.149L110.285 123.625ZM113.16 140.473C113.64 140.473 114.101 140.663 114.441 141.003C114.78 141.343 114.971 141.803 114.971 142.284C114.971 142.764 114.78 143.225 114.441 143.564C114.101 143.904 113.64 144.095 113.16 144.095C112.68 144.095 112.219 143.904 111.879 143.564C111.54 143.225 111.349 142.764 111.349 142.284C111.349 141.803 111.54 141.343 111.879 141.003C112.219 140.663 112.68 140.473 113.16 140.473V140.473Z" fill="#EBBA00"/>
<path d="M65.55 142.629C64.7875 142.629 64.0562 142.932 63.5171 143.471C62.9779 144.01 62.675 144.741 62.675 145.504C62.675 146.266 62.9779 146.997 63.5171 147.537C64.0562 148.076 64.7875 148.379 65.55 148.379H76.475C77.1282 148.382 77.7693 148.556 78.3342 148.884C78.8992 149.212 79.3684 149.682 79.695 150.247C80.0762 150.911 80.7054 151.396 81.4441 151.595C82.1827 151.795 82.9704 151.692 83.6337 151.311C84.2971 150.93 84.7819 150.301 84.9814 149.562C85.1809 148.823 85.0787 148.036 84.6975 147.372C83.8643 145.929 82.6656 144.731 81.2222 143.898C79.7788 143.066 78.1414 142.628 76.475 142.629H65.55Z" fill="#AC5B00"/>
<path d="M92 102.551H84.985C84.2225 102.551 83.4912 102.854 82.9521 103.393C82.4129 103.932 82.11 104.664 82.11 105.426C82.11 106.189 82.4129 106.92 82.9521 107.459C83.4912 107.998 84.2225 108.301 84.985 108.301H92L94.875 105.426L92 102.551Z" fill="#F0F4F7"/>
<path d="M92 88.4062H82.6562C81.9949 86.8764 80.8263 85.6214 79.3475 84.8528C77.8688 84.0841 76.1702 83.8488 74.5381 84.1865C72.9061 84.5242 71.4404 85.4142 70.388 86.7066C69.3357 87.9989 68.7611 89.6146 68.7611 91.2812C68.7611 92.9478 69.3357 94.5635 70.388 95.8558C71.4404 97.1482 72.9061 98.0382 74.5381 98.3759C76.1702 98.7136 77.8688 98.4783 79.3475 97.7096C80.8263 96.941 81.9949 95.686 82.6562 94.1562H92V88.4062ZM76.015 89.7862C76.3274 89.8754 76.6022 90.064 76.7979 90.3234C76.9935 90.5828 77.0994 90.8988 77.0994 91.2237C77.0994 91.5486 76.9935 91.8646 76.7979 92.124C76.6022 92.3834 76.3274 92.572 76.015 92.6612C75.8152 92.6691 75.6159 92.636 75.4294 92.5641C75.2429 92.4921 75.073 92.3827 74.9303 92.2427C74.7876 92.1027 74.675 91.935 74.5995 91.7498C74.524 91.5647 74.4872 91.3661 74.4912 91.1662C74.5135 90.7823 74.6857 90.4226 74.9708 90.1644C75.2558 89.9063 75.6308 89.7705 76.015 89.7862Z" fill="#F0F4F7"/>
<path d="M92 74.2612H84.985C84.2225 74.2612 83.4912 74.5641 82.9521 75.1033C82.4129 75.6425 82.11 76.3737 82.11 77.1362C82.11 77.8987 82.4129 78.63 82.9521 79.1692C83.4912 79.7083 84.2225 80.0112 84.985 80.0112H92L94.875 77.1362L92 74.2612Z" fill="#F0F4F7"/>
</svg>
